<?xml version="1.0" encoding="utf-8"?>
<!-- Svg Vector Icons : http://www.onlinewebfonts.com/icon -->
<!DOCTYPE svg PUBLIC "-//W3C//DTD SVG 1.1//EN" "http://www.w3.org/Graphics/SVG/1.1/DTD/svg11.dtd">
<svg version="1.1" xmlns="http://www.w3.org/2000/svg" xmlns:xlink="http://www.w3.org/1999/xlink" x="0px" y="0px" viewBox="0 0 1000 1000" enable-background="new 0 0 1000 1000" xml:space="preserve">
<metadata> Svg Vector Icons : http://www.onlinewebfonts.com/icon </metadata>
<g><path d="M925.9,538.3c-31.9-31.9-78.9-34.8-110.8-2.9l-91.2,91.1c-23.7,23.7-52.3,23.7-69,4c-11.1-13.1-6.7-53.3-3.6-78.9L697,175.8c4.1-33.6-19.8-66-53.4-70.1c-33.6-4.1-64.1,21.7-68.2,55.3l-50.4,295.3c-2.6,7.3-8.3,8.6-8.9-1.3L498.8,71.3c0-33.8-27.4-61.3-61.3-61.3c-33.8,0-61.3,27.4-61.3,61.3L375,457.9c0.3,4.5-3.5,5.7-4.2,0.6l-54.5-301.8c-6-33.3-37.9-57.3-71.2-51.3c-33.3,6-55.4,39.8-49.4,73.1l48.5,353.2c0,6.3-2.1,9.9-5,1.8l-72.4-193.6c-11.3-31.9-46.4-50.5-78.3-39.1c-31.9,11.3-48.6,48.3-37.2,80.1l127,414.8c0.7,2.3,1.4,4.6,2.1,6.8l0.3,0.9c0,0.1,0.1,0.1,0.1,0.2C215.8,911.8,317.5,990,437.5,990c76.8,0,156.6-27.1,217.3-73.7l0,0c65.6-39.5,275.8-265.4,275.8-265.4C962.5,619,957.8,570.2,925.9,538.3L925.9,538.3z"/></g>
</svg>